<?xml version="1.0" encoding="UTF-8"?>
<svg id="Layer_2" xmlns="http://www.w3.org/2000/svg" version="1.1" viewBox="0 0 157.6 190">
  <!-- Generator: Adobe Illustrator 29.2.1, SVG Export Plug-In . SVG Version: 2.1.0 Build 116)  -->
  <defs>
    <style>
      .st0 {
        fill: #02228c;
      }
    </style>
  </defs>
  <g id="Layer_1-2">
    <path class="st0" d="M157.6,96.3c.6-11.7-11.5-15.7-18.8-16.3-.4,0-.7-.1-1.1-.2,0-1.9,0-3.8,0-5.7.2-10.3.3-21-3.4-31.6C125.5,16.8,105.2,0,78,0s-3.9,0-5.8.3C46.5,2.5,26.8,23.5,21.3,49c-1.7,8-1.2,28.7-1.2,30.9-.4,0-.8,0-1.2,0C7,80.6,0,88.6.1,95.7v.5C0,96.2,0,171.8,0,171.8v.5c0,9.2,4,17.2,16.3,17.4h.6c0,.1,123.1.1,123.1.1h.4c9.7-.3,17.7-7.4,17.2-16.6v-.5c0,0,0-75.6,0-75.6v-.8q0,0,0,0ZM93.3,22.7c12.4,5,17,15.7,19.9,28.6,1.3,5.6,1.9,19.5,1.6,28.7H43.4c0-2.8-.4-22.4-.2-24.6,1.1-10.5,4.2-22.7,13.9-29.1,10.8-7.1,24-8.5,36.2-3.6h0Z"/>
  </g>
</svg>