<?xml version="1.0" encoding="UTF-8"?>
<svg id="Layer_2" xmlns="http://www.w3.org/2000/svg" viewBox="0 0 68.5 68.54">
  <defs>
    <style>
      .cls-1 {
        fill: #f3ecd8;
      }
    </style>
  </defs>
  <g id="Layer_1-2" data-name="Layer_1">
    <path class="cls-1" d="M63.92,43.07c-7.82,8.26,4.12,19.09.47,22.92-2.38,1.65-7.05.07-9.48-.28-2.55-.47-5.18-.26-7.71.19-4.18.84-8.63,2.31-12.91,2.5-11.72,1-22.01-4.18-28.36-14.04C2.03,48.35.09,40.39.02,32.87-.48,18.92,8.92,6.41,21.75,1.59c9.31-3.87,17.23.25,26.16,2.67,2.13.54,4.31.92,6.49.96,2.39.18,5.32-.76,7.79-.5,4.14.74-4.64,6.37-5.59,7.43-7.34,6.16-14.36,12.72-20.32,20.23-2.78,3.69-5.98,8.1-4.75,12.98.61,2.87,3.77,3.32,5.61,5.32,1.21,1.27,1.42,3.45-.31,4.44-6.47,3.1-10.42-5.88-9.39-11.11,1.23-8.91,8.61-15.55,13.57-22.59,2.2-2.9,4.27-6.3,3.54-9.98-1.63-6.62-9.58-9.13-15.73-8.38C7.12,6.07,6.88,34.74,11.84,51.44c2.95,10.46,14.66,15.94,25.06,13.65,6.56-1.23,13.03-5.46,14.45-12.33.92-3.65-.23-7.74-2.9-10.28-.95-.99-2.29-1.67-3.25-2.69-2.2-2.76,1.33-3.22,3.42-3.19,4.94-.05,9.87,0,14.81-.02,1.99-.06,6.84.02,4.4,3.09-1.09,1.3-2.72,2.14-3.86,3.36l-.05.05Z"/>
  </g>
</svg>