<?xml version="1.0" encoding="UTF-8"?>
<svg id="Layer_1" xmlns="http://www.w3.org/2000/svg" version="1.1" viewBox="0 0 1420 1420">
  <!-- Generator: Adobe Illustrator 29.2.1, SVG Export Plug-In . SVG Version: 2.1.0 Build 116)  -->
  <defs>
    <style>
      .st0 {
        fill: #511a06;
      }

      .st1 {
        fill: #f3ecd9;
      }
    </style>
  </defs>
  <path class="st0" d="M451.2,525.1c31.9-19.7,66.5-35.4,101-49.2,16.8-7.1,34.5-12.5,52.7-16.1,16.5-4.1,40.2-4.9,48.8-21.2,7-14.6-12-31.3-24.1-40.7-81.8-72-77-212,.9-285.2,38.1-32.1,92.7-50.2,142.9-45.1,57.3,6.7,115.4,40.6,146.2,88.4,78.8,135.1-18.9,301.1-176.8,286.2-33.6-2.4-38.5,3.8-.9,7.2,251.8,3.6,453.5,228.9,456.1,474.1,2.3,93.1-26.9,190.7-82.5,268.2-288,419.7-950.5,187.1-890-318,3.9-28.4,9.8-57.2,17.6-84.8,8.1-27.5,20.3-54.8,33.3-80.3,24.2-46.2,58.2-88.1,95.1-124.9,15.8-15,35.5-27.9,53-40.3,9-6.3,17.9-12.8,26.5-18.2h.2c0,0,0,0,0,0ZM717.1,405.6c40.1,19,90.7,6.3,119-27.9,56.3-69.1,51.9-215.2-28.5-258.8-14.2-7.7-32.5-12.6-49.3-13.3-59.2-3.5-90.8,44-99.3,96.8-10,60-3,170.9,58,203.1h.2ZM342.2,1067.8c61,166.7,239.9,292.9,419.8,265,54.5-8.7,107.6-30.4,153.9-60.4,241.9-161.2,259-500.9,21.5-679.7-198.2-149.1-455.6-65.8-572.4,146.4-51.7,102.4-63.8,222.5-22.9,328.5v.2c0,0,0,0,0,0Z"/>
  <circle class="st1" cx="589.5" cy="63.3" r="52.4"/>
</svg>