<?xml version="1.0" encoding="UTF-8"?>
<svg id="Layer_1" xmlns="http://www.w3.org/2000/svg" version="1.1" viewBox="0 0 1420 1420">
  <!-- Generator: Adobe Illustrator 29.2.1, SVG Export Plug-In . SVG Version: 2.1.0 Build 116)  -->
  <defs>
    <style>
      .st0 {
        fill: #511a06;
      }
    </style>
  </defs>
  <path class="st0" d="M1384.7,58.4c-14.6-16.2-44.6-24.3-90-24.3s-130.5,15.4-206.7,46.2c-76.2,30.8-153.2,72.9-231,126.4-77.8,51.9-149.9,110.2-216.4,175.1-64.8,64.8-117.5,132.1-158,201.8-24.6,44.1-41.4,86.9-50.5,128.4-20.8,1.9-41.2,2.9-61.4,2.9-64.8,0-115.1-6.5-150.7-19.5-34-14.6-54.3-24.3-60.8-29.2-6.5-4.9-13-5.7-19.4-2.4-4.9,3.2-1.6,8.9,9.7,17,8.1,6.5,30.8,17,68.1,31.6,37.3,14.6,88.3,21.9,153.2,21.9s38.1-.7,57.5-2.1c-2.7,17.1-4.1,34-4.1,50.7,0,45.4,9.7,74.6,29.2,87.5,21.1,11.3,56.7,17,107,17s101.3-11.3,158-34c56.7-24.3,111.8-52.7,165.3-85.1,27-15.9,52.2-31.5,75.7-47-13.8,14.5-27.6,30.2-41.7,47-47,58.3-96.4,121.6-148.3,189.6-51.9,68.1-106.2,132.9-162.9,194.5-55.1,60-112.6,110.2-172.6,150.7-60,38.9-121.6,58.4-184.8,58.4s-107-6.5-136.2-19.5c-29.2-13-47-28.4-53.5-46.2-8.1-17.8-12.1-33.2-12.1-46.2,0,0,4.1,2.4,12.2,7.3,8.1,3.2,19.5,4.9,34,4.9s25.1-4.1,36.5-12.2c9.7-9.7,14.6-21.9,14.6-36.5s-4.9-21.1-14.6-29.2c-8.1-8.1-19.4-12.2-34-12.2s-32.4,7.3-53.5,21.9c-21.1,13-31.6,32.4-31.6,58.4,0,40.5,23.5,72.9,70.5,97.2,47,24.3,101.3,36.5,162.9,36.5,92.4,0,176.7-17.8,252.9-53.5,76.2-37.3,145.9-85.9,209.1-145.9,63.2-60,121.6-124.8,175.1-194.5,53.5-69.7,102.9-137.8,148.3-204.2,45.4-66.5,88.3-124.8,128.9-175.1,40.5-50.2,79.4-85.9,116.7-107,59.3-59.4-6.9-69.8-33.3-43.4-8.3,8.3-29.9,44.2-63.9,70.2-34,25.9-76.2,57.5-126.4,94.8-48.6,35.7-101.3,72.1-158,109.4-55.1,35.7-111,65.7-167.8,90-55.1,24.3-107,36.5-155.6,36.5s-40.5-4.9-53.5-14.6c-11.3-11.3-17-27.6-17-48.6s9.3-46.1,28-80.5c36.1-6.6,72.9-15.4,110.6-26.5,94-29.2,186.4-66.5,277.2-111.8,92.4-45.4,175-94.8,248-148.3,74.6-55.1,133.7-109.4,177.5-162.9,45.4-55.1,68.1-103.7,68.1-145.9s-8.1-49.4-24.3-65.6h0ZM1321.5,221.3c-42.1,48.6-99.7,101.3-172.6,158-72.9,56.7-154,111-243.1,162.9-87.5,50.2-178.3,91.6-272.3,124-30.7,10.8-60.9,19.8-90.6,27,25.5-42,58.9-89.1,100.3-141.2,43.8-56.7,93.2-113.5,148.3-170.2,56.7-58.4,115.1-111.8,175-160.5,61.6-48.6,121.6-87.5,179.9-116.7,58.3-30.8,112.7-46.2,162.9-46.2s34.8,4,51.1,12.1c17.8,8.1,26.7,21.1,26.7,38.9,0,25.9-21.9,63.2-65.6,111.8h0Z"/>
</svg>