<?xml version="1.0" encoding="UTF-8"?>
<svg id="Layer_1" xmlns="http://www.w3.org/2000/svg" version="1.1" viewBox="0 0 1420 1420">
  <!-- Generator: Adobe Illustrator 29.2.1, SVG Export Plug-In . SVG Version: 2.1.0 Build 116)  -->
  <defs>
    <style>
      .st0 {
        fill: #511a06;
      }
    </style>
  </defs>
  <g id="Layer_1-2">
    <path class="st0" d="M1317.3,873.3c-160.1,153.1,84.3,353.9,9.6,424.9-48.7,30.6-144.3,1.3-194.1-5.2-52.2-8.7-106-4.8-157.8,3.5-85.6,15.6-176.7,42.8-264.3,46.3-239.9,18.5-450.6-77.5-580.5-260.3C50.4,971.1,10.7,823.6,9.3,684.2-1,425.6,191.5,193.7,454.1,104.4c190.6-71.7,352.7,4.6,535.5,49.5,43.6,10,88.2,17.1,132.8,17.8,48.9,3.3,108.9-14.1,159.5-9.3,84.8,13.7-95,118.1-114.4,137.7-150.2,114.2-294,235.8-416,375-56.9,68.4-122.4,150.2-97.2,240.6,12.5,53.2,77.2,61.5,114.8,98.6,24.8,23.5,29.1,63.9-6.3,82.3-132.4,57.5-213.3-109-192.2-205.9,25.2-165.2,176.2-288.2,277.8-418.8,45-53.8,87.4-116.8,72.5-185-33.4-122.7-196.1-169.2-322-155.3-444.2,55.8-449.1,587.2-347.6,896.8,60.4,193.9,300.1,295.5,513,253,134.3-22.8,266.7-101.2,295.8-228.6,18.8-67.7-4.7-143.5-59.4-190.6-19.5-18.3-46.9-31-66.5-49.9-45-51.2,27.2-59.7,70-59.1,101.1-.9,202,0,303.2-.4,40.7-1.1,140,.4,90.1,57.3-22.3,24.1-55.7,39.7-79,62.3l-1,.9v-.2h0Z"/>
  </g>
</svg>