<?xml version="1.0" encoding="UTF-8"?>
<svg id="Layer_1" xmlns="http://www.w3.org/2000/svg" version="1.1" viewBox="0 0 1420 1420">
  <!-- Generator: Adobe Illustrator 29.2.1, SVG Export Plug-In . SVG Version: 2.1.0 Build 116)  -->
  <defs>
    <style>
      .st0 {
        fill: #511a06;
      }
    </style>
  </defs>
  <path class="st0" d="M1242.5,399.5V116.2c0-59.4-47.6-107.6-106.2-107.6H283.7c-58.7,0-106.2,48.2-106.2,107.6v1187.6c0,59.4,47.6,107.6,106.2,107.6h852.6c58.7,0,106.2-48.2,106.2-107.6v-658.2c0-58.1-46.5-105.2-103.9-105.2h-438.9c-8.7,0-15.8,7.1-15.8,16v36c0,8.8,7,16,15.8,16h224.9c124,0,229,98.4,232.2,223.9,3.3,129.8-99.6,236.1-227.1,236.1h-245.4c-125.7,0-227.6-103.2-227.6-230.4V310.7c0-127.3,101.9-230.4,227.6-230.4h-.8c125.7,0,227.6,103.2,227.6,230.4v88.7c0,38.2,30.6,69.2,68.4,69.2h194.7c37.8,0,68.4-31,68.4-69.2h0Z"/>
</svg>