<?xml version="1.0" encoding="UTF-8"?>
<svg id="Layer_1" xmlns="http://www.w3.org/2000/svg" version="1.1" viewBox="0 0 1420 1420">
  <!-- Generator: Adobe Illustrator 29.2.1, SVG Export Plug-In . SVG Version: 2.1.0 Build 116)  -->
  <defs>
    <style>
      .st0 {
        fill: #511a06;
      }
    </style>
  </defs>
  <path class="st0" d="M845.3,70.2c71.5,35.8,135.3,132,109.5,213.7-13.7,43.4-49.9,76.8-95.8,54.1-26.9-13.3-41.5-37.9-47.5-66.5-6.1-29.1,12.5-67.4,2-93-30-73-184.5-33.6-235.4-9.9-89.4,41.7-160.8,116.5-210,201-118.4,203.4-179,513.9,10.5,695.4,69.9,66.9,169.9,101,266.1,90.8,51.1-5.4,101.7-23.3,141.2-56.2,119.8-99.4,61.2-232.9,48.5-361.7-7-59.4,11.8-110,50.5-152.3,28.5-34.3,70-59.1,114.6-59.2,85.1-2.5,144.9,66.1,125.6,150.6-6.2,34.8-27.2,64.6-37.9,97.6-8,24.7-3.9,55.3,18.7,70.8,25.9,18.3,61.1,17.2,94,19.6,44.8,2.7,95.1,0,137.9,15.9,49.8,18.5,86.9,69.8,66.7,123.1-32.8,86.5-137.9,75.4-208.4,101.2-17.2,6.3-41,16.8-42.3,37.3,1.8,35.8,65.1,44.2,69.1,117.9,1.4,26.1-11.6,53.4-32.4,68.5-64.2,46.5-137.4-32.6-145.1-94.9-6.2-50.2,19.6-99.9,52-136.4,33.3-37.6,84.5-49.9,116.5-86.6,20.9-24,23.2-64-7.4-80.6-24.6-14.5-55-15.4-82.4-21.4-67.8-11.7-104-63.7-103-130.8-.4-27-7.8-67.7-41.8-66.8-47.1,8-8.7,105.9-1.4,130.4,23.2,77.7,40.2,167.8,16.2,248.5-31.9,107.3-91.3,183.8-204.5,232.7-324.2,140.2-694,26.1-766-355.8C-50.2,575.4,176,198.1,514.4,72.6c97.2-36.1,233-51.3,330.9-2.4h0Z"/>
</svg>